<svg id="eyXEvT6QDHo1" xmlns="http://www.w3.org/2000/svg" xmlns:xlink="http://www.w3.org/1999/xlink" viewBox="0 0 220 131.734" shape-rendering="geometricPrecision" text-rendering="geometricPrecision"><path d="M95,8.539L53,22.986v50.284c-1.832-.864-4.27-1.001-6.694-.193-4.192,1.397-6.74,5.078-5.692,8.222s5.295,4.559,9.487,3.162c3.742-1.247,6.166-4.314,5.899-7.195L56,32L92,19.603v32.681c-1.835-.876-4.286-1.019-6.722-.207-4.192,1.397-6.74,5.078-5.692,8.222s5.295,4.559,9.487,3.162c3.525-1.175,5.878-3.965,5.918-6.692h.009v-48.23ZM19,9v43c-1.869-.892-4.481-.971-6.963-.143-4.269,1.423-6.865,5.172-5.798,8.374s5.393,4.644,9.663,3.221c3.59-1.197,6.047-4.038,6.087-6.816h.011L22,23c0,0,12.926,3.741,17,18C39,24.704,25,22,19,9ZM37.423,79L2,79v2h35.476c-.104006-.661577-.121821-1.333844-.053-2ZM98,81v-2h-39.1c-.115715.68804-.314153,1.359575-.591,2L98,81ZM5.078,64L2,64v2h5.87c-1.081-.501-2.028-1.176-2.792-2ZM98,66v-2h-3.769c-.978.804-2.112,1.487-3.377,2L98,66ZM78.401,64L59,64v2h22.155c-1.040194-.47975-1.975934-1.1593-2.754-2ZM21.09,64c-1.038593.833553-2.195642,1.507627-3.433,2L50,66v-2h-28.91ZM25,49h25v2h-25ZM11.125,49L2,49v2h5.25c1.106-.825,2.395-1.508,3.839-1.99.012-.004.024-.006.036-.01ZM59,51h21.822c1.076506-.757486,2.258009-1.35346,3.507-1.769L85.125,49L59,49v2ZM32.25,34L25,34v2h8.595c-.427-.712-.877-1.378-1.345-2ZM2,34h14v2h-14Zm57,2h30v-2h-29.594L59,34.14ZM41.551,36L50,36v-2h-8.898l.449,2ZM32.734,21h18.028c.340489-.387926.775604-.681103,1.263-.851L55.366,19h-24.68l2.048,2ZM2,19h14v2h-14Z" transform="matrix(.941663 0 0 0.941663 63.1167-8.04086)" fill="#fce38f"/></svg>
